<svg width="470" height="421" viewBox="0 0 470 421" fill="none" xmlns="http://www.w3.org/2000/svg">
<g clip-path="url(#clip0_1079_26935)">
<path d="M396.3 124.616H369.648V151.263H396.3V124.616Z" fill="#F2F2F2"/>
<path d="M447.326 13.1687C438.155 10.8929 426.112 9.61137 410.952 9.61137C410.421 9.61137 409.891 9.61137 409.338 9.63346H409.206C374.069 9.87651 342.644 17.1679 317.252 28.4364H285.187C246.536 14.4281 209.829 0 166.206 0C57.7666 0 0 82.0833 0 132.239C0 182.395 21.4802 201.132 48.242 201.132C56.75 201.132 63.667 194.238 63.667 185.709C63.667 177.181 56.7721 170.287 48.242 170.287C39.7118 170.287 32.8169 177.181 32.8169 185.709C32.8169 190.393 34.9163 194.592 38.2311 197.42C28.9275 197.42 9.30365 183.942 9.30365 139.818C9.28155 74.7256 89.6996 3.04912 165.698 3.04912C179.068 3.04912 191.399 4.39692 203.155 6.60643V31.4192H241.387V17.0574C255.707 21.9846 269.806 27.641 284.612 33.1647V47.5045C263.883 63.3466 251.861 82.1275 251.861 99.8036C251.861 137.034 300.634 137.785 303.882 137.807H196.017V156.522H124.925V199.452H89.2134V278.685C89.2134 279.105 89.1913 279.525 89.1913 279.923C89.1913 280.365 89.2134 280.807 89.2134 281.249V284.342H89.2797C91.1581 338.784 127.776 374.622 191.929 380.743C207.553 407.5 239.464 420.978 273.784 420.978C323.55 420.978 366.864 376.456 366.864 376.456L364.721 374.313C364.721 374.313 321.937 417.951 274.292 417.951C241.541 417.951 217.873 403.103 206.316 381.516C207.155 381.516 207.973 381.56 208.857 381.56C401.405 381.56 407.438 267.925 407.438 249.189C407.438 220.111 388.543 194.857 349.892 194.857C226.713 194.857 181.918 278.288 181.918 341.436C181.918 355.09 184.858 367 190.007 377.163C178.979 375.55 169.211 372.391 160.659 368.104V329.548H132.35V284.364H160.659V206.125H214.625V174.684H288.612V157.803H340.08V118.098H298.534V75.1012H334.578V48.9627C355.837 54.0888 379.637 57.5135 407.703 57.5135C425.714 57.5135 439.879 55.2377 450.111 51.57H470.044V13.1687H447.371H447.326ZM350.202 197.729C383.637 197.729 404.344 219.25 404.344 249.034C404.344 264.567 398.444 346.053 284.524 371.153V356.637H258.469V375.595C247.95 376.92 236.68 377.826 224.613 378.246V349.898H198.272C198.272 349.5 198.249 349.125 198.249 348.727C198.249 306.172 231.995 197.751 350.18 197.751L350.202 197.729ZM372.941 52.3654V34.9324H409.338V13.1908C409.714 13.1908 410.068 13.1908 410.443 13.1908C422.421 13.1908 432.697 13.8978 441.117 15.334V51.0176C431.548 53.4039 420.056 54.7517 407.902 54.7517C395.748 54.7517 384.057 53.8899 372.919 52.3875L372.941 52.3654Z" fill="#F2F2F2"/>
</g>
<defs>
<clipPath id="clip0_1079_26935">
<rect width="470" height="421" fill="white"/>
</clipPath>
</defs>
</svg>
